<svg xmlns="http://www.w3.org/2000/svg" role="img" aria-labelledby="diagram-title" width="1560" height="1070" viewBox="0 0 1560 1070">
<title id="diagram-title">NNUE evaluator hardware architecture (current RTL)</title>
<defs>
<style>
    .bg{fill:#ffffff}
    .title{font:650 20px Inter,"Segoe UI",Roboto,Helvetica,Arial,sans-serif;fill:#0f172a;text-anchor:middle}
    .block{fill:#f8fafc;stroke:#334155;stroke-width:1.7}
    .node.bigger .block{stroke-width:2}
    .node.smaller .block{stroke-width:1.4}
    .module{fill:#eef2ff;stroke:#4f46e5}
    .logic,.alu,.adder,.subtractor,.addsub,.multiplier,.comparator,.and,.or,.xor,.not{fill:#fff7ed;stroke:#c2410c}
    .memory-shadow{fill:#ccfbf1;stroke:#0f766e;stroke-width:1.2}
    .memory,.fifo{fill:#ecfeff;stroke:#0f766e}
    .reg,.counter{fill:#eff6ff;stroke:#2563eb}
    .fsm,.arbiter{fill:#fdf2f8;stroke:#be185d}
    .fsm{stroke-dasharray:5 3}
    .mux,.demux{fill:#fefce8;stroke:#a16207}
    .io{fill:#f0fdf4;stroke:#15803d}
    .symbol-line{fill:none;stroke:#64748b;stroke-width:1.2}
    .clock-glyph{stroke:#2563eb;stroke-width:1.7}
    .operator-badge{fill:#fff;stroke:#c2410c;stroke-width:1.2}
    .operator{font:700 12px Inter,"Segoe UI",Roboto,Helvetica,Arial,sans-serif;fill:#9a3412;text-anchor:middle}
    .operator.alu-operator{font-size:9px}
    .block-label{font:600 14px Inter,"Segoe UI",Roboto,Helvetica,Arial,sans-serif;fill:#0f172a;text-anchor:middle}
    .block-label.bigger{font-size:15px;font-weight:650}
    .block-label.smaller{font-size:13px;font-weight:550}
    .subtitle{font:11px Inter,"Segoe UI",Roboto,Helvetica,Arial,sans-serif;fill:#475569;text-anchor:middle}
    .subtitle.bigger{font-size:11.5px}
    .subtitle.smaller{font-size:10.5px}
    .group{fill-opacity:.58;stroke-width:1.1;stroke-dasharray:6 4}
    .group.group-0{fill:#eff6ff;stroke:#93c5fd}
    .group.group-1{fill:#f0fdf4;stroke:#86efac}
    .group.group-2{fill:#fff7ed;stroke:#fdba74}
    .group.group-3{fill:#faf5ff;stroke:#d8b4fe}
    .group-label{font:650 13px Inter,"Segoe UI",Roboto,Helvetica,Arial,sans-serif;fill:#334155}
    .group-label-bg{fill:#fff;fill-opacity:.96}
    .edge{fill:none;stroke:#475569;stroke-width:1.6;stroke-linejoin:round;stroke-linecap:butt}
    .edge.data{stroke:#2563eb}
    .edge.bus{stroke-width:3}
    .edge.control{stroke:#a16207;stroke-dasharray:6 4}
    .edge.clock{stroke:#7c3aed;stroke-dasharray:2 3}
    .edge.response{stroke:#0f766e}
    .arrowhead{stroke:none}
    .arrowhead.data{fill:#2563eb}
    .arrowhead.control{fill:#a16207}
    .arrowhead.clock{fill:#7c3aed}
    .arrowhead.response{fill:#0f766e}
    .edge-label{font:500 10.5px Inter,"Segoe UI",Roboto,Helvetica,Arial,sans-serif;fill:#334155;text-anchor:middle}
    .edge-label.data{fill:#1d4ed8}
    .edge-label.control{fill:#854d0e}
    .edge-label.clock{fill:#6d28d9}
    .edge-label.response{fill:#0f766e}
    .edge-label-bg{fill:#fff;fill-opacity:.98;stroke:#cbd5e1;stroke-width:.7}
    .label-leader-halo{fill:none;stroke:#ffffff;stroke-width:4}
    .label-leader{fill:none;stroke:#cbd5e1;stroke-width:.9}
    </style>
</defs>
<rect x="0" y="0" width="1560" height="1070" class="bg"/>
<text x="780.0" y="32" class="title">NNUE evaluator hardware architecture (current RTL)</text>
<rect x="38" y="57" width="1100" height="320" rx="10" class="group group-0"/>
<rect x="658" y="391" width="617" height="148" rx="10" class="group group-1"/>
<rect x="38" y="550" width="1298" height="470" rx="10" class="group group-2"/>
<rect x="597" y="259" width="145" height="96" rx="4" class="memory-shadow"/>
<rect x="945" y="103" width="140" height="68" rx="4" class="memory-shadow"/>
<rect x="957" y="430" width="203" height="94" rx="4" class="memory-shadow"/>
<rect x="787" y="436" width="144" height="82" rx="4" class="memory-shadow"/>
<rect x="297" y="756" width="158" height="82" rx="4" class="memory-shadow"/>
<rect x="747" y="763" width="126" height="68" rx="4" class="memory-shadow"/>
<polyline points="418,300 579,300" class="edge data bus"/>
<polyline points="350,259 350,240 380,240 380,130 408,130" class="edge control"/>
<polyline points="735,280 889,280" class="edge data bus"/>
<polyline points="1020,164 1020,234" class="edge data bus"/>
<polyline points="578,130 620,130 620,220 970,220 970,235" class="edge control"/>
<polyline points="1050,423 1050,366" class="edge response bus"/>
<polyline points="1010,355 1010,412" class="edge data bus"/>
<polyline points="900,320 860,320 860,390 850,390 850,418" class="edge data bus"/>
<polyline points="500,171 500,190 240,190 240,300 214,300" class="edge response"/>
<polyline points="440,664 440,680 470,680 470,780 499,780" class="edge data bus"/>
<polyline points="360,630 140,630 140,746" class="edge control"/>
<polyline points="511,650 840,650" class="edge control"/>
<polyline points="510,800 459,800" class="edge control bus"/>
<polyline points="682,790 729,790" class="edge control bus"/>
<polyline points="850,511 850,530 810,530 810,610 839,610" class="edge data bus"/>
<polyline points="1050,517 1050,540 1020,540 1020,610 996,610" class="edge data bus"/>
<polyline points="985,650 1020,650 1020,731" class="edge data bus"/>
<polyline points="1112,810 1159,810" class="edge data bus"/>
<polyline points="370,831 370,860 1220,860 1220,856" class="edge data bus"/>
<polyline points="229,800 280,800" class="edge control"/>
<polyline points="229,780 270,780 270,720 1130,720 1130,770 1160,770" class="edge control"/>
<polyline points="1260,845 1260,891" class="edge data bus"/>
<polyline points="1180,950 1061,950" class="edge data bus"/>
<polyline points="866,790 910,790 910,880 970,880 970,891" class="edge data bus"/>
<polyline points="140,824 140,870 850,870 850,930 880,930" class="edge control"/>
<polyline points="890,970 772,970" class="edge data bus"/>
<polyline points="620,950 572,950" class="edge data bus"/>
<polyline points="420,950 302,950" class="edge data bus"/>
<g class="node normal">
<rect x="290" y="259" width="128" height="82" rx="41" class="block io"/>
<text x="354" y="287.0" class="block-label">Update request</text>
<text x="354" y="307.0" class="subtitle">thread, features,</text>
<text x="354" y="321.0" class="subtitle">add/remove, clear</text>
</g>
<g class="node normal">
<rect x="590" y="252" width="145" height="96" rx="4" class="block memory"/>
<text x="662" y="278.5" class="block-label">Feature</text>
<text x="662" y="295.5" class="block-label">transformer ROM</text>
<text x="662" y="315.5" class="subtitle">768 rows × 256</text>
<text x="662" y="329.5" class="subtitle">signed 2-bit weights</text>
</g>
<g class="node normal">
<rect x="938" y="96" width="140" height="68" rx="4" class="block memory"/>
<text x="1008" y="124.0" class="block-label">Accumulator bias</text>
<text x="1008" y="144.0" class="subtitle">256 × signed 3-bit</text>
</g>
<g class="node normal">
<rect x="418" y="89" width="160" height="82" rx="12" class="block fsm"/>
<text x="498" y="117.0" class="block-label">Update control</text>
<text x="498" y="137.0" class="subtitle">one row accepted</text>
<text x="498" y="151.0" class="subtitle">per cycle</text>
</g>
<g class="node bigger">
<rect x="900" y="245" width="216" height="110" rx="6" class="block addsub"/>
<circle cx="914" cy="259" r="8" class="operator-badge"/>
<text x="914" y="263" class="operator">±</text>
<text x="1008" y="278.5" class="block-label bigger">512-lane</text>
<text x="1008" y="295.5" class="block-label bigger">accumulator add/sub</text>
<text x="1008" y="315.5" class="subtitle bigger">two perspectives ×</text>
<text x="1008" y="329.5" class="subtitle bigger">256 signed 5-bit lanes</text>
</g>
<g class="node normal">
<rect x="60" y="266" width="144" height="68" rx="34" class="block io"/>
<text x="132" y="294.0" class="block-label">Update completion</text>
<text x="132" y="314.0" class="subtitle">thread + ply tag</text>
</g>
<g class="node bigger">
<rect x="950" y="423" width="203" height="94" rx="4" class="block memory"/>
<text x="1051" y="457.0" class="block-label bigger">Update-state memory</text>
<text x="1051" y="477.0" class="subtitle bigger">one 2 × 256 × 5-bit</text>
<text x="1051" y="491.0" class="subtitle bigger">word per thread</text>
</g>
<g class="node normal">
<rect x="780" y="429" width="144" height="82" rx="4" class="block memory"/>
<text x="852" y="457.0" class="block-label">Evaluation mirror</text>
<text x="852" y="477.0" class="subtitle">multi-thread</text>
<text x="852" y="491.0" class="subtitle">independent read port</text>
</g>
<g class="node normal">
<rect x="360" y="596" width="158" height="68" rx="34" class="block io"/>
<text x="439" y="624.0" class="block-label">Evaluation request</text>
<text x="439" y="644.0" class="subtitle">thread, turn, piece count</text>
</g>
<g class="node normal">
<rect x="510" y="756" width="172" height="68" rx="6" class="block logic"/>
<text x="596" y="784.0" class="block-label">16-head bucket select</text>
<text x="596" y="804.0" class="subtitle">two-piece phase bands</text>
</g>
<g class="node normal">
<rect x="850" y="582" width="135" height="96" rx="2" class="block reg"/>
<polyline points="850,658 858,664 850,670" class="symbol-line clock-glyph"/>
<text x="917" y="608.5" class="block-label">Accumulator</text>
<text x="917" y="625.5" class="block-label">snapshot</text>
<text x="917" y="645.5" class="subtitle">512 signed</text>
<text x="917" y="659.5" class="subtitle">5-bit values</text>
</g>
<g class="node normal">
<rect x="930" y="742" width="182" height="96" rx="6" class="block logic"/>
<text x="1021" y="768.5" class="block-label">Perspective reorder</text>
<text x="1021" y="785.5" class="block-label">+ ReLU clip</text>
<text x="1021" y="805.5" class="subtitle">side to move first;</text>
<text x="1021" y="819.5" class="subtitle">clamp to 0…7</text>
</g>
<g class="node normal">
<rect x="290" y="749" width="158" height="82" rx="4" class="block memory"/>
<text x="369" y="777.0" class="block-label">Output-weight rows</text>
<text x="369" y="797.0" class="subtitle">16 heads × 4 rows</text>
<text x="369" y="811.0" class="subtitle">× 128 signed 3-bit</text>
</g>
<g class="node normal">
<rect x="60" y="756" width="169" height="68" rx="12" class="block fsm"/>
<text x="144" y="784.0" class="block-label">Evaluation sequencer</text>
<text x="144" y="804.0" class="subtitle">four MAC cycles</text>
</g>
<g class="node bigger">
<rect x="1170" y="735" width="144" height="110" rx="6" class="block multiplier"/>
<circle cx="1184" cy="749" r="8" class="operator-badge"/>
<text x="1184" y="753" class="operator">×</text>
<text x="1242" y="768.5" class="block-label bigger">128 parallel</text>
<text x="1242" y="785.5" class="block-label bigger">multipliers</text>
<text x="1242" y="805.5" class="subtitle bigger">generic inferred</text>
<text x="1242" y="819.5" class="subtitle bigger">LUT/DSP mapping</text>
</g>
<g class="node normal">
<rect x="1180" y="902" width="124" height="96" rx="2" class="block reg"/>
<polyline points="1180,978 1188,984 1180,990" class="symbol-line clock-glyph"/>
<text x="1242" y="928.5" class="block-label">16 registered</text>
<text x="1242" y="945.5" class="block-label">partial sums</text>
<text x="1242" y="965.5" class="subtitle">eight products</text>
<text x="1242" y="979.5" class="subtitle">per register</text>
</g>
<g class="node normal">
<rect x="740" y="756" width="126" height="68" rx="4" class="block memory"/>
<text x="803" y="784.0" class="block-label">Output biases</text>
<text x="803" y="804.0" class="subtitle">16 × signed 5-bit</text>
</g>
<g class="node normal">
<rect x="890" y="902" width="160" height="96" rx="6" class="block adder"/>
<circle cx="904" cy="916" r="8" class="operator-badge"/>
<text x="904" y="920" class="operator">+</text>
<text x="970" y="928.5" class="block-label">Upper adder tree</text>
<text x="970" y="945.5" class="block-label">+ running sum</text>
<text x="970" y="965.5" class="subtitle">accumulates four</text>
<text x="970" y="979.5" class="subtitle">128-input groups</text>
</g>
<g class="node normal">
<rect x="620" y="909" width="141" height="82" rx="2" class="block reg"/>
<polyline points="620,971 628,977 620,983" class="symbol-line clock-glyph"/>
<text x="690" y="944.0" class="block-label">Result register</text>
<text x="690" y="964.0" class="subtitle">signed 15-bit sum</text>
</g>
<g class="node normal">
<rect x="420" y="916" width="141" height="68" rx="6" class="block logic"/>
<text x="490" y="944.0" class="block-label">Finite-score clip</text>
<text x="490" y="964.0" class="subtitle">±16,383</text>
</g>
<g class="node normal">
<rect x="150" y="916" width="141" height="68" rx="34" class="block io"/>
<text x="220" y="944.0" class="block-label">NNUE correction</text>
<text x="220" y="964.0" class="subtitle">side-to-move relative</text>
</g>
<polygon points="579,305.5 590,300 579,294.5" class="arrowhead data bus"/>
<polygon points="408,135 418,130 408,125" class="arrowhead control"/>
<polygon points="889,285.5 900,280 889,274.5" class="arrowhead data bus"/>
<polygon points="1014.5,234 1020,245 1025.5,234" class="arrowhead data bus"/>
<polygon points="965,235 970,245 975,235" class="arrowhead control"/>
<polygon points="1055.5,366 1050,355 1044.5,366" class="arrowhead response bus"/>
<polygon points="1004.5,412 1010,423 1015.5,412" class="arrowhead data bus"/>
<polygon points="844.5,418 850,429 855.5,418" class="arrowhead data bus"/>
<polygon points="214,295 204,300 214,305" class="arrowhead response"/>
<polygon points="499,785.5 510,780 499,774.5" class="arrowhead data bus"/>
<polygon points="135,746 140,756 145,746" class="arrowhead control"/>
<polygon points="840,655 850,650 840,645" class="arrowhead control"/>
<polygon points="459,794.5 448,800 459,805.5" class="arrowhead control bus"/>
<polygon points="729,795.5 740,790 729,784.5" class="arrowhead control bus"/>
<polygon points="839,615.5 850,610 839,604.5" class="arrowhead data bus"/>
<polygon points="996,604.5 985,610 996,615.5" class="arrowhead data bus"/>
<polygon points="1014.5,731 1020,742 1025.5,731" class="arrowhead data bus"/>
<polygon points="1159,815.5 1170,810 1159,804.5" class="arrowhead data bus"/>
<polygon points="1225.5,856 1220,845 1214.5,856" class="arrowhead data bus"/>
<polygon points="280,805 290,800 280,795" class="arrowhead control"/>
<polygon points="1160,775 1170,770 1160,765" class="arrowhead control"/>
<polygon points="1254.5,891 1260,902 1265.5,891" class="arrowhead data bus"/>
<polygon points="1061,944.5 1050,950 1061,955.5" class="arrowhead data bus"/>
<polygon points="964.5,891 970,902 975.5,891" class="arrowhead data bus"/>
<polygon points="880,935 890,930 880,925" class="arrowhead control"/>
<polygon points="772,964.5 761,970 772,975.5" class="arrowhead data bus"/>
<polygon points="572,944.5 561,950 572,955.5" class="arrowhead data bus"/>
<polygon points="302,944.5 291,950 302,955.5" class="arrowhead data bus"/>
<rect x="45.0" y="60.0" width="259.0" height="19.0" rx="3" class="group-label-bg"/>
<text x="48.0" y="74.0" class="group-label">Incremental accumulator update path</text>
<rect x="665.0" y="394.0" width="158.2" height="19.0" rx="3" class="group-label-bg"/>
<text x="668.0" y="408.0" class="group-label">Per-thread live state</text>
<rect x="45.0" y="553.0" width="244.6" height="19.0" rx="3" class="group-label-bg"/>
<text x="48.0" y="567.0" class="group-label">Four-cycle output evaluation path</text>
<polyline points="492,300 492,250" class="label-leader"/>
<rect x="402.2" y="232.0" width="179.6" height="18.0" rx="5" class="edge-label-bg"/>
<text x="492.0" y="244.0" class="edge-label data">White + Black feature indices · 20b</text>
<polyline points="806,280 806,242" class="label-leader"/>
<rect x="725.1" y="224.0" width="161.8" height="18.0" rx="5" class="edge-label-bg"/>
<text x="806.0" y="236.0" class="edge-label data">two transformer rows · 512 × 2b</text>
<rect x="1028.0" y="196.0" width="50.0" height="18.0" rx="5" class="edge-label-bg"/>
<text x="1053.0" y="208.0" class="edge-label data">256 × 3b</text>
<rect x="743.2" y="194.0" width="103.6" height="18.0" rx="5" class="edge-label-bg"/>
<text x="795.0" y="206.0" class="edge-label control">enable / add / clear</text>
<rect x="1058.0" y="381.0" width="47.2" height="18.0" rx="5" class="edge-label-bg"/>
<text x="1081.6" y="393.0" class="edge-label response">512 × 5b</text>
<rect x="954.8" y="381.0" width="47.2" height="18.0" rx="5" class="edge-label-bg"/>
<text x="978.4" y="393.0" class="edge-label data">512 × 5b</text>
<rect x="788.8" y="364.0" width="132.4" height="18.0" rx="5" class="edge-label-bg"/>
<text x="855.0" y="376.0" class="edge-label data">mirrored commit · 512 × 5b</text>
<polyline points="310,190 310,182" class="label-leader"/>
<rect x="262.7" y="164.0" width="94.6" height="18.0" rx="5" class="edge-label-bg"/>
<text x="310.0" y="176.0" class="edge-label response">final-request tag</text>
<rect x="448.0" y="676.0" width="87.2" height="18.0" rx="5" class="edge-label-bg"/>
<text x="491.6" y="688.0" class="edge-label data">piece count · 6b</text>
<rect x="642.3" y="624.0" width="75.4" height="18.0" rx="5" class="edge-label-bg"/>
<text x="680.0" y="636.0" class="edge-label control">thread + turn</text>
<polyline points="479,800 479,832" class="label-leader"/>
<rect x="459.4" y="832.0" width="87.2" height="18.0" rx="5" class="edge-label-bg"/>
<text x="503.0" y="844.0" class="edge-label control">head select · 4b</text>
<rect x="697.0" y="764.0" width="28.0" height="18.0" rx="5" class="edge-label-bg"/>
<text x="711.0" y="776.0" class="edge-label control">4b</text>
<rect x="715.2" y="538.0" width="205.6" height="18.0" rx="5" class="edge-label-bg"/>
<text x="818.0" y="550.0" class="edge-label data">multi-thread synchronous read · 512 × 5b</text>
<rect x="933.4" y="548.0" width="203.2" height="18.0" rx="5" class="edge-label-bg"/>
<text x="1035.0" y="560.0" class="edge-label data">single-thread direct snapshot · 512 × 5b</text>
<polyline points="1002,650 1002,658 1007,658" class="label-leader"/>
<rect x="1002.4" y="658.0" width="47.2" height="18.0" rx="5" class="edge-label-bg"/>
<text x="1026.0" y="670.0" class="edge-label data">512 × 5b</text>
<polyline points="1132,810 1132,690" class="label-leader-halo"/>
<polyline points="1132,810 1132,690" class="label-leader"/>
<rect x="1056.2" y="672.0" width="151.6" height="18.0" rx="5" class="edge-label-bg"/>
<text x="1132.0" y="684.0" class="edge-label data">128 activations per cycle · 4b</text>
<polyline points="1065,860 1065,868" class="label-leader"/>
<rect x="989.2" y="868.0" width="151.6" height="18.0" rx="5" class="edge-label-bg"/>
<text x="1065.0" y="880.0" class="edge-label data">selected weight row · 128 × 3b</text>
<polyline points="248,800 248,832" class="label-leader"/>
<rect x="224.9" y="832.0" width="46.2" height="18.0" rx="5" class="edge-label-bg"/>
<text x="248.0" y="844.0" class="edge-label control">row 0…3</text>
<rect x="1268.0" y="866.0" width="47.2" height="18.0" rx="5" class="edge-label-bg"/>
<text x="1291.6" y="878.0" class="edge-label data">128 × 6b</text>
<rect x="1064.0" y="924.0" width="102.0" height="18.0" rx="5" class="edge-label-bg"/>
<text x="1115.0" y="936.0" class="edge-label data">16 partial sums · 9b</text>
<rect x="874.0" y="764.0" width="28.0" height="18.0" rx="5" class="edge-label-bg"/>
<text x="888.0" y="776.0" class="edge-label data">5b</text>
<rect x="775.5" y="978.0" width="101.0" height="18.0" rx="5" class="edge-label-bg"/>
<text x="826.0" y="990.0" class="edge-label data">completed sum · 15b</text>
<rect x="576.0" y="924.0" width="28.0" height="18.0" rx="5" class="edge-label-bg"/>
<text x="590.0" y="936.0" class="edge-label data">15b</text>
<polyline points="356,950 356,994" class="label-leader"/>
<rect x="291.4" y="994.0" width="129.2" height="18.0" rx="5" class="edge-label-bg"/>
<text x="356.0" y="1006.0" class="edge-label data">result valid + score · 16b</text>
</svg>
